<?xml version="1.0" standalone="no"?>
<!DOCTYPE svg PUBLIC "-//W3C//DTD SVG 20010904//EN"
 "http://www.w3.org/TR/2001/REC-SVG-20010904/DTD/svg10.dtd">
<svg version="1.0" xmlns="http://www.w3.org/2000/svg"
 width="1024.000000pt" height="1024.000000pt" viewBox="0 0 1024.000000 1024.000000"
 preserveAspectRatio="xMidYMid meet">
<metadata>
Created by potrace 1.16, written by Peter Selinger 2001-2019
</metadata>
<g transform="translate(0.000000,1024.000000) scale(0.100000,-0.100000)"
fill="#000000" stroke="none">
<path d="M6315 6361 c-33 -20 -71 -60 -160 -166 -95 -112 -109 -128 -132 -151
-13 -12 -23 -26 -23 -33 0 -6 -4 -11 -8 -11 -4 0 -49 -49 -100 -109 -88 -103
-108 -127 -171 -196 -15 -16 -54 -61 -86 -100 -33 -38 -64 -75 -70 -81 -5 -6
-26 -30 -45 -53 -19 -24 -42 -50 -51 -60 -18 -17 -67 -75 -139 -161 -25 -30
-55 -64 -67 -76 -13 -12 -23 -24 -23 -28 0 -3 -13 -18 -28 -33 -15 -16 -62
-68 -103 -118 -77 -92 -108 -128 -191 -219 l-47 -51 -28 30 c-16 17 -81 86
-144 154 -62 69 -148 160 -189 203 -41 42 -133 138 -203 212 -128 134 -171
166 -222 166 -45 0 -103 -39 -125 -85 -38 -79 -26 -118 74 -226 92 -97 348
-369 406 -429 25 -25 104 -109 175 -186 72 -76 143 -151 158 -166 40 -38 96
-52 147 -37 40 12 52 23 154 142 22 27 48 56 57 65 17 18 62 70 139 162 25 30
56 66 70 80 37 40 77 85 159 184 40 49 81 96 90 106 30 31 75 84 129 150 30
36 59 70 65 75 7 6 31 33 55 62 24 28 55 65 70 81 16 17 61 70 102 118 41 49
84 98 95 110 23 23 47 51 129 149 32 39 63 75 70 80 6 6 31 35 56 64 25 30 54
64 65 75 11 12 38 43 60 70 37 45 40 54 40 110 0 51 -4 67 -25 92 -14 17 -36
36 -49 42 -37 18 -102 14 -136 -7z"/>
</g>
</svg>
