<?xml version="1.0" standalone="no"?>
<!DOCTYPE svg PUBLIC "-//W3C//DTD SVG 20010904//EN"
 "http://www.w3.org/TR/2001/REC-SVG-20010904/DTD/svg10.dtd">
<svg version="1.0" xmlns="http://www.w3.org/2000/svg"
 width="1024.000000pt" height="1024.000000pt" viewBox="0 0 1024.000000 1024.000000"
 preserveAspectRatio="xMidYMid meet">

<g transform="translate(0.000000,1024.000000) scale(0.100000,-0.100000)"
fill="#000000" stroke="none">
<path d="M3247 7403 c-6 -11 -9 -128 -3 -122 5 4 15 129 10 129 -2 0 -5 -3 -7
-7z"/>
<path d="M3271 7324 c0 -11 3 -14 6 -6 3 7 2 16 -1 19 -3 4 -6 -2 -5 -13z"/>
<path d="M3260 7269 c0 -5 -4 -7 -10 -4 -6 4 -10 -25 -10 -80 0 -67 3 -86 13
-82 9 3 12 -4 11 -22 -3 -50 -7 -56 -14 -21 -4 19 -8 -193 -8 -472 -1 -494 -1
-507 19 -530 l20 -23 -16 39 c-14 35 -11 72 4 48 3 -6 11 1 18 14 10 23 10 25
-9 22 -16 -2 -21 3 -24 25 -2 25 -1 27 13 15 14 -11 16 -10 11 10 -4 13 -2 22
5 22 7 0 4 5 -5 11 -10 5 -18 18 -18 27 0 15 2 15 10 2 7 -11 10 -7 10 18 0
17 -4 32 -10 32 -5 0 -10 12 -10 28 0 21 2 24 10 12 8 -12 10 -9 10 11 0 15
-6 29 -14 32 -9 4 -12 14 -9 27 4 16 8 18 14 8 5 -7 9 -8 9 -3 0 6 -6 17 -12
23 -7 7 -13 27 -14 44 -1 29 0 30 12 13 13 -18 14 -17 14 8 0 15 -7 30 -15 33
-10 4 -15 20 -15 48 1 41 1 41 15 16 14 -25 14 -25 15 -2 0 12 -7 25 -15 28
-16 7 -21 34 -6 34 14 0 23 32 11 44 -5 5 -10 17 -10 25 0 14 1 14 10 1 7 -11
10 -6 11 20 2 71 -3 105 -17 116 -8 6 -14 17 -14 24 0 10 3 10 15 0 15 -13 21
-3 15 25 -1 5 -2 18 -3 27 -1 13 -4 14 -14 6 -10 -8 -13 -3 -13 23 0 30 1 31
14 14 11 -16 13 -10 12 51 -1 49 -5 68 -13 67 -9 -2 -13 11 -13 42 0 28 4 45
12 45 9 0 9 3 0 12 -17 17 -15 31 3 24 10 -4 15 1 15 14 0 11 -4 20 -10 20 -5
0 -10 -5 -10 -11z m10 -1033 c0 -3 -4 -8 -10 -11 -5 -3 -10 -1 -10 4 0 6 5 11
10 11 6 0 10 -2 10 -4z"/>
<path d="M3260 7176 c0 -14 5 -28 10 -31 6 -4 10 7 10 24 0 17 -4 31 -10 31
-5 0 -10 -11 -10 -24z"/>
<path d="M3340 6781 c0 -6 4 -13 10 -16 6 -3 7 1 4 9 -7 18 -14 21 -14 7z"/>
<path d="M3326 6718 c3 -5 10 -6 15 -3 13 9 11 12 -6 12 -8 0 -12 -4 -9 -9z"/>
<path d="M3340 6351 c0 -6 4 -13 10 -16 6 -3 7 1 4 9 -7 18 -14 21 -14 7z"/>
<path d="M4131 6234 c0 -11 3 -14 6 -6 3 7 2 16 -1 19 -3 4 -6 -2 -5 -13z"/>
<path d="M4153 6215 c-3 -9 -3 -18 -1 -21 3 -3 8 4 11 16 6 23 -1 27 -10 5z"/>
<path d="M3242 6020 c0 -14 2 -19 5 -12 2 6 2 18 0 25 -3 6 -5 1 -5 -13z"/>
<path d="M3240 5870 c0 -62 3 -111 6 -107 8 8 8 206 0 214 -3 4 -6 -45 -6
-107z"/>
<path d="M3271 5964 c0 -11 3 -14 6 -6 3 7 2 16 -1 19 -3 4 -6 -2 -5 -13z"/>
<path d="M4175 5940 c3 -5 8 -10 11 -10 2 0 4 5 4 10 0 6 -5 10 -11 10 -5 0
-7 -4 -4 -10z"/>
<path d="M3270 5887 c4 -41 5 -41 8 -8 2 18 0 37 -5 42 -5 5 -6 -11 -3 -34z"/>
<path d="M3265 5827 c-4 -10 -5 -21 -1 -24 10 -10 18 4 13 24 -4 17 -4 17 -12
0z"/>
<path d="M4221 5764 c0 -11 3 -14 6 -6 3 7 2 16 -1 19 -3 4 -6 -2 -5 -13z"/>
<path d="M4137 5749 c4 -13 8 -18 11 -10 2 7 -1 18 -6 23 -8 8 -9 4 -5 -13z"/>
<path d="M3271 5744 c0 -11 3 -14 6 -6 3 7 2 16 -1 19 -3 4 -6 -2 -5 -13z"/>
</g>
</svg>
