<?xml version="1.0" standalone="no"?>
<!DOCTYPE svg PUBLIC "-//W3C//DTD SVG 20010904//EN"
 "http://www.w3.org/TR/2001/REC-SVG-20010904/DTD/svg10.dtd">
<svg version="1.0" xmlns="http://www.w3.org/2000/svg"
 width="1024.000000pt" height="1024.000000pt" viewBox="0 0 1024.000000 1024.000000"
 preserveAspectRatio="xMidYMid meet">

<g transform="translate(0.000000,1024.000000) scale(0.100000,-0.100000)"
fill="#000000" stroke="none">
<path d="M5370 5293 c-80 -35 -264 -116 -410 -179 -170 -74 -273 -124 -288
-140 l-23 -26 3 -490 c3 -471 4 -490 22 -504 11 -8 32 -14 46 -14 15 0 211 82
436 183 385 172 410 185 426 217 16 32 18 77 18 505 0 517 0 516 -58 514 -15
0 -92 -30 -172 -66z"/>
</g>
</svg>
