<?xml version="1.0" standalone="no"?>
<!DOCTYPE svg PUBLIC "-//W3C//DTD SVG 20010904//EN"
 "http://www.w3.org/TR/2001/REC-SVG-20010904/DTD/svg10.dtd">
<svg version="1.0" xmlns="http://www.w3.org/2000/svg"
 width="1024.000000pt" height="1024.000000pt" viewBox="0 0 1024.000000 1024.000000"
 preserveAspectRatio="xMidYMid meet">
<metadata>
Created by potrace 1.16, written by Peter Selinger 2001-2019
</metadata>
<g transform="translate(0.000000,1024.000000) scale(0.100000,-0.100000)"
fill="#000000" stroke="none">
<path d="M7020 7233 c-8 -3 -28 -11 -45 -18 -16 -7 -55 -22 -85 -35 -60 -24
-74 -30 -265 -120 -71 -34 -148 -70 -170 -79 -89 -40 -267 -124 -655 -313
-237 -114 -261 -126 -380 -181 -41 -19 -111 -52 -155 -72 -74 -35 -368 -177
-650 -315 -224 -109 -510 -247 -580 -280 -120 -56 -379 -180 -397 -190 -23
-13 -35 -19 -138 -67 -207 -98 -323 -157 -356 -179 -19 -13 -38 -24 -42 -24
-14 -1 -58 -45 -80 -81 -22 -36 -22 -40 -22 -427 0 -222 4 -401 9 -416 24 -61
88 -106 154 -108 41 0 129 26 186 57 15 7 49 23 76 35 108 47 251 117 540 263
39 20 120 59 180 88 61 28 175 83 255 121 80 38 163 77 185 87 22 11 168 82
325 159 157 77 321 157 365 177 103 48 237 111 400 190 72 35 175 84 230 110
55 26 231 111 390 190 160 78 322 157 360 175 39 18 120 57 182 86 61 30 114
54 117 54 4 0 46 19 94 42 98 47 173 114 193 175 15 48 4 765 -13 797 -38 73
-142 123 -208 99z m-37 -405 c4 -66 7 -186 7 -264 l0 -144 -122 -58 c-68 -33
-154 -74 -193 -92 -71 -32 -147 -69 -515 -248 -372 -181 -594 -287 -715 -342
-163 -75 -256 -120 -800 -386 -27 -13 -63 -31 -80 -41 -16 -9 -38 -20 -47 -25
-10 -4 -26 -12 -35 -17 -10 -4 -56 -26 -103 -48 -47 -23 -137 -66 -200 -96
-63 -30 -151 -72 -195 -92 -75 -35 -262 -124 -451 -216 -45 -21 -84 -39 -88
-39 -4 0 -38 -18 -77 -40 -39 -22 -76 -40 -83 -40 -16 0 -26 152 -26 376 0
160 1 165 50 179 14 4 138 62 275 130 138 67 286 139 330 160 44 20 143 68
220 105 77 38 172 83 210 100 39 18 133 63 210 100 77 37 176 84 220 105 44
20 127 60 185 87 58 28 148 71 200 95 52 25 185 89 295 143 267 130 680 328
740 355 46 20 307 145 330 157 21 12 52 27 270 132 77 37 147 71 155 76 8 5
18 9 21 9 3 1 9 -54 12 -121z"/>
</g>
</svg>
